<svg xmlns="http://www.w3.org/2000/svg" width="640" height="420" viewBox="0 0 640 420" role="img" aria-label="Health Campaign template thumbnail">
  <rect width="640" height="420" fill="#F0F4F8"/>
  <rect x="44" y="34" width="552" height="352" rx="18" fill="#FFFFFF" stroke="#DDE7EE" stroke-width="3"/>
  <rect x="44" y="34" width="552" height="92" rx="18" fill="#0072CE"/>
  <rect x="44" y="96" width="552" height="30" fill="#0072CE"/>
  <circle cx="108" cy="80" r="22" fill="#FFFFFF" opacity="0.95"/>
  <path d="M101 80h14M108 73v14" stroke="#0072CE" stroke-width="5" stroke-linecap="round"/>
  <text x="150" y="75" font-family="Arial, sans-serif" font-size="32" font-weight="700" fill="#FFFFFF">Health Campaign</text>
  <text x="150" y="105" font-family="Arial, sans-serif" font-size="18" fill="#FFFFFF" opacity="0.9">NHS GP practice visual</text>
  <rect x="82" y="166" width="296" height="28" rx="6" fill="#231F20" opacity="0.9"/>
  <rect x="82" y="212" width="420" height="18" rx="5" fill="#425563" opacity="0.55"/>
  <rect x="82" y="244" width="372" height="18" rx="5" fill="#425563" opacity="0.35"/>
  <rect x="82" y="276" width="286" height="18" rx="5" fill="#425563" opacity="0.25"/>
  <circle cx="492" cy="258" r="56" fill="#0072CE" opacity="0.14"/>
  <circle cx="492" cy="258" r="36" fill="#0072CE" opacity="0.22"/>
  <path d="M458 258h68M492 224v68" stroke="#0072CE" stroke-width="12" stroke-linecap="round" opacity="0.7"/>
  <text x="82" y="346" font-family="Arial, sans-serif" font-size="24" font-weight="700" fill="#0072CE">Book your clinic</text>
</svg>